<?xml version="1.0" standalone="no"?>
<!DOCTYPE svg PUBLIC "-//W3C//DTD SVG 20010904//EN"
 "http://www.w3.org/TR/2001/REC-SVG-20010904/DTD/svg10.dtd">
<svg version="1.0" xmlns="http://www.w3.org/2000/svg"
 width="1255.000000pt" height="1280.000000pt" viewBox="0 0 1255.000000 1280.000000"
 preserveAspectRatio="xMidYMid meet">
<metadata>
Created by potrace 1.15, written by Peter Selinger 2001-2017
</metadata>
<g transform="translate(0.000000,1280.000000) scale(0.100000,-0.100000)"
fill="#000000" stroke="none">
<path d="M6844 11640 c-108 -11 -190 -36 -295 -92 -85 -45 -169 -112 -169
-134 0 -13 4 -13 28 0 65 33 165 56 249 56 76 0 86 -2 108 -24 24 -24 24 -26
10 -73 -33 -108 -37 -132 -38 -218 0 -49 10 -171 22 -270 11 -99 25 -284 30
-411 6 -126 18 -330 27 -453 21 -264 19 -280 -59 -442 -87 -179 -369 -585
-400 -574 -68 24 -68 24 -57 45 9 17 14 19 33 9 22 -12 22 -12 3 10 -20 22 -9
30 13 9 9 -9 9 -4 -2 17 -14 27 -13 33 4 67 14 27 19 59 20 115 0 43 1 98 1
123 0 26 -9 66 -22 95 -14 30 -24 72 -25 105 -1 42 -11 74 -42 135 -36 73 -41
89 -46 180 -4 62 -14 124 -28 164 -30 87 -293 615 -363 729 -31 50 -77 116
-102 146 l-45 56 21 67 c42 137 46 262 10 383 -26 90 -45 76 -53 -38 -6 -86
-30 -158 -77 -232 l-31 -49 -60 48 c-122 98 -278 153 -449 158 -52 1 -120 5
-150 9 -44 5 -65 2 -100 -14 -25 -12 -82 -27 -127 -36 -60 -11 -111 -29 -185
-67 -132 -67 -240 -171 -308 -297 -69 -127 -57 -119 -127 -83 -101 50 -177
130 -226 233 -23 48 -45 88 -50 88 -28 0 -14 -143 23 -242 27 -73 101 -185
174 -265 l58 -63 -30 -77 c-43 -112 -60 -182 -74 -318 -14 -133 -17 -458 -5
-521 7 -37 6 -41 -17 -52 -14 -6 -28 -22 -31 -35 -7 -27 20 -100 63 -174 23
-39 32 -70 38 -125 9 -97 21 -123 93 -200 33 -36 67 -81 75 -100 8 -19 22 -40
30 -48 10 -8 16 -29 16 -58 0 -45 18 -112 30 -112 4 0 4 28 2 62 -4 59 -4 62
13 48 13 -11 16 -23 11 -55 -12 -70 -26 -115 -39 -115 -6 0 -153 77 -327 171
-173 94 -373 203 -445 242 -71 38 -224 129 -339 200 -226 141 -292 171 -404
182 -55 5 -80 13 -100 30 l-27 23 21 29 c19 25 71 69 120 100 17 10 17 13 4
23 -21 15 -69 6 -140 -26 -60 -27 -133 -97 -213 -204 -41 -55 -84 -175 -126
-352 -73 -304 -77 -328 -126 -878 -13 -144 -21 -185 -42 -232 -30 -68 -27
-111 11 -167 14 -20 48 -108 76 -196 169 -531 311 -875 444 -1074 58 -87 116
-156 116 -138 0 4 -26 58 -57 120 -56 110 -57 114 -61 212 -7 161 30 309 96
379 78 82 224 86 375 10 84 -43 239 -144 281 -183 21 -20 61 -70 88 -111 55
-82 87 -120 100 -120 18 0 6 37 -39 119 -46 84 -47 88 -50 191 -5 139 16 220
68 262 31 25 44 29 101 29 78 1 154 -27 303 -109 128 -71 185 -115 263 -202
57 -63 92 -86 92 -61 0 5 -16 32 -36 61 -44 64 -64 127 -64 203 0 59 23 123
40 112 6 -3 7 1 4 9 -9 24 4 19 31 -11 l23 -28 -5 45 c-5 41 -3 47 21 59 14 8
28 12 30 10 2 -2 1 -22 -3 -44 -8 -44 9 -107 36 -137 12 -14 15 -30 10 -75
l-6 -58 20 38 c17 32 23 36 35 26 8 -6 14 -23 14 -38 1 -52 84 -230 142 -303
14 -18 23 -47 27 -89 3 -36 11 -64 19 -67 7 -2 12 5 12 18 0 12 4 19 10 15 5
-3 6 -13 3 -22 -4 -10 -2 -14 5 -9 12 7 18 1 62 -61 25 -36 90 -85 90 -68 0 3
-13 29 -30 58 -16 30 -30 62 -30 73 0 11 11 -2 27 -31 32 -62 72 -125 78 -125
2 0 -3 17 -11 37 -15 35 -15 36 2 23 16 -14 17 -13 10 10 -41 140 -45 167 -42
295 4 148 14 215 30 215 6 0 21 -8 33 -18 21 -16 22 -20 11 -85 -14 -76 -6
-121 38 -214 24 -51 26 -61 19 -140 -5 -61 -4 -83 4 -79 6 4 11 0 11 -9 0 -30
18 -5 25 33 3 20 11 44 16 52 11 15 10 3 -6 -76 l-5 -29 13 27 c19 40 37 17
38 -47 2 -48 2 -48 9 -15 7 32 8 33 15 13 4 -13 11 -20 16 -17 5 3 9 -7 10
-23 1 -27 1 -26 20 12 14 30 19 35 19 18 0 -16 4 -21 15 -17 9 4 15 19 15 38
l0 31 25 -30 c14 -16 34 -47 46 -68 11 -21 24 -35 29 -32 5 3 14 -3 20 -12 10
-16 11 -15 6 7 -17 86 -18 103 -9 97 6 -4 14 -26 17 -49 4 -24 11 -50 17 -58
7 -11 8 -6 4 19 -5 24 -4 32 5 26 8 -5 9 3 5 29 -7 34 -6 36 21 36 16 0 38 3
49 5 16 5 25 -5 49 -55 31 -65 46 -77 21 -17 -8 20 -15 49 -14 64 0 23 4 19
18 -22 16 -48 40 -97 41 -84 0 4 -7 26 -15 49 -16 46 -21 114 -6 75 5 -11 16
-45 26 -75 20 -62 35 -94 40 -88 3 2 -2 26 -10 53 -20 65 -18 78 5 33 11 -20
25 -40 31 -44 6 -3 4 4 -4 17 -21 35 -51 118 -44 125 3 4 41 -25 85 -62 78
-68 80 -70 136 -201 32 -73 55 -137 52 -142 -3 -5 8 -25 24 -46 21 -26 28 -44
24 -60 -4 -16 1 -27 16 -38 35 -24 68 -76 63 -98 -4 -13 7 -33 36 -64 27 -29
41 -54 41 -71 0 -17 14 -42 40 -70 32 -35 39 -49 34 -68 -5 -20 1 -31 31 -57
28 -25 35 -38 31 -55 -4 -16 6 -36 40 -78 30 -36 44 -61 40 -72 -4 -10 5 -26
24 -44 25 -23 30 -36 28 -65 -2 -27 3 -41 18 -53 27 -22 37 -51 23 -68 -8 -10
-7 -18 6 -30 9 -9 39 -62 67 -118 28 -55 71 -132 96 -171 24 -38 51 -80 58
-92 8 -12 14 -34 14 -48 0 -43 69 -257 95 -295 13 -19 51 -92 85 -163 34 -70
66 -125 71 -121 16 10 22 -27 8 -53 -12 -22 -11 -27 5 -39 31 -22 48 -156 24
-193 -9 -15 -9 -23 1 -35 27 -33 61 -150 61 -212 0 -43 4 -63 14 -67 18 -7 28
-57 31 -157 1 -47 5 -94 10 -105 4 -11 14 -34 20 -51 13 -33 11 -74 -7 -111
-9 -19 -8 -27 8 -44 15 -16 19 -35 18 -85 0 -36 -6 -70 -14 -79 -9 -11 -10
-22 -3 -38 34 -75 37 -155 6 -186 -12 -11 -11 -16 4 -33 15 -17 18 -36 16
-110 -1 -58 -6 -93 -13 -98 -10 -6 -9 -26 3 -86 17 -84 14 -128 -11 -156 -14
-16 -13 -20 1 -36 13 -14 17 -39 17 -104 0 -77 -2 -87 -22 -100 -20 -14 -21
-17 -8 -33 23 -28 2 -189 -27 -211 -13 -8 -13 -15 -4 -32 9 -18 8 -29 -9 -61
-11 -22 -20 -58 -20 -80 0 -22 -5 -43 -10 -46 -6 -3 -7 -17 -4 -31 3 -13 2
-24 -3 -24 -10 0 -33 -93 -33 -137 0 -18 -6 -33 -15 -37 -8 -3 -15 -11 -15
-18 0 -6 -8 -21 -19 -32 -20 -23 -41 -78 -41 -107 0 -10 -11 -30 -25 -45 -14
-15 -25 -35 -25 -45 0 -27 -62 -108 -82 -108 -18 -1 -21 -9 -19 -46 1 -14 -13
-28 -49 -47 -27 -16 -57 -28 -65 -28 -8 0 -21 -13 -29 -29 -9 -16 -28 -34 -43
-39 -15 -6 -77 -28 -138 -50 -99 -35 -112 -43 -130 -75 -17 -32 -18 -40 -7
-89 7 -29 16 -73 20 -98 7 -42 9 -45 47 -53 22 -4 142 -6 268 -4 185 4 227 2
227 -9 0 -18 26 -31 80 -38 293 -38 505 -54 635 -47 19 1 40 22 90 91 36 49
93 114 127 144 77 70 207 170 213 164 3 -3 13 -35 22 -73 15 -60 15 -84 5
-199 -7 -81 -8 -134 -3 -139 6 -6 33 -12 61 -15 l52 -5 -7 44 c-8 53 11 199
31 249 8 19 32 55 53 80 63 76 85 113 87 145 2 16 10 50 19 75 14 35 16 64 11
132 -8 122 -21 170 -72 274 -51 105 -67 174 -67 299 0 79 9 125 71 365 78 306
116 512 134 726 20 248 -15 513 -106 801 -25 78 -52 170 -62 205 -50 195 -77
486 -56 623 6 39 22 144 36 235 31 203 69 388 98 477 13 38 21 78 20 89 -1 12
9 57 22 100 63 202 101 388 116 579 6 72 15 154 20 184 15 82 12 226 -6 295
-36 141 -122 284 -235 392 -63 59 -160 124 -208 139 -30 9 -14 20 39 28 49 7
256 71 364 113 632 244 1106 717 1106 1103 0 205 -172 325 -397 277 -204 -43
-411 -194 -657 -479 -66 -77 -68 -77 -101 6 -12 28 -28 52 -35 52 -19 0 -58
-59 -69 -104 -12 -43 -41 -267 -41 -310 0 -41 11 -40 182 8 130 36 175 59 205
101 12 17 11 21 -9 34 -13 8 -35 18 -50 21 -39 10 -53 30 -41 58 6 13 47 65
90 117 216 257 448 399 634 388 106 -6 160 -56 167 -157 17 -230 -253 -573
-630 -799 -185 -111 -407 -208 -612 -268 -155 -45 -427 -93 -586 -105 -131 -9
-261 -23 -370 -39 -80 -12 -253 -12 -285 0 -12 5 -40 36 -60 71 -31 50 -49
104 -96 287 -32 125 -56 228 -54 230 2 2 34 -25 72 -61 170 -162 260 -227 315
-227 85 0 125 41 134 136 9 94 -13 142 -103 231 -38 38 -82 86 -98 107 l-30
39 45 -5 45 -6 -40 20 -40 19 43 -6 c49 -8 54 4 15 35 l-28 21 32 -16 c53 -25
51 -17 -12 42 -33 31 -51 49 -41 42 11 -8 4 7 -16 36 -20 28 -43 74 -52 103
l-15 53 22 -6 c40 -12 131 -56 152 -73 13 -11 12 -7 -5 13 l-25 29 25 -17 c55
-37 62 -40 52 -20 -17 30 -54 60 -118 95 -80 43 -110 79 -123 150 -5 30 -22
84 -36 119 -15 35 -29 71 -33 79 -5 13 -4 13 13 0 19 -15 19 -14 2 15 -17 28
-16 28 13 -5 l31 -35 -12 30 c-7 17 -27 45 -43 64 l-31 35 42 -33 c84 -65 112
-110 137 -223 19 -87 33 -100 136 -133 30 -10 70 -28 88 -42 35 -26 42 -17 16
22 -17 26 -7 34 15 13 11 -11 12 -9 3 8 -6 12 -43 35 -87 54 -82 36 -98 54
-110 125 -19 112 -40 146 -140 219 -62 47 -115 101 -115 120 0 14 125 -72 142
-98 17 -27 19 -28 15 -8 -5 23 -5 23 14 6 18 -16 19 -16 19 0 0 30 -19 55 -75
96 -55 40 -76 70 -89 123 -6 25 -3 29 31 44 59 24 83 20 121 -22 l35 -38 -6
37 c-4 27 -3 35 6 30 7 -4 3 2 -7 14 -11 12 -17 24 -15 26 9 9 239 75 314 90
214 42 364 44 511 5 229 -60 363 -173 438 -369 39 -101 60 -140 76 -140 15 0
12 28 -14 129 -29 110 -24 177 21 288 68 167 142 264 218 284 92 25 278 -18
391 -92 41 -26 82 -66 123 -119 34 -44 68 -80 76 -80 21 0 19 7 -23 85 -47 86
-72 196 -74 330 -3 140 14 207 66 262 35 38 50 45 104 55 79 15 156 -2 329
-72 150 -60 211 -101 333 -224 52 -53 100 -96 107 -96 27 0 11 32 -60 121 -56
70 -79 107 -95 158 -45 143 -47 352 -5 436 43 83 161 145 276 145 144 0 398
-71 554 -156 67 -37 112 -74 250 -208 92 -91 170 -163 172 -160 8 8 -67 119
-145 218 -183 227 -560 557 -1109 968 -179 134 -279 216 -320 262 -32 37 -70
73 -84 80 -14 7 -60 16 -100 20 -100 9 -197 43 -711 246 -574 227 -981 361
-1230 406 -108 19 -308 25 -426 14z m-566 -1987 c6 -18 7 -33 3 -33 -10 0 -31
46 -31 67 0 24 15 5 28 -34z m-104 -52 c-8 -9 -22 12 -17 26 6 15 7 14 13 -3
4 -10 6 -21 4 -23z m106 -52 c0 -5 -4 -9 -10 -9 -5 0 -10 7 -10 16 0 8 5 12
10 9 6 -3 10 -10 10 -16z m-90 -132 c0 -6 -9 -2 -20 8 -11 10 -20 23 -20 28 0
6 9 2 20 -8 11 -10 20 -23 20 -28z m-192 -130 c-1 -74 11 -115 63 -219 22 -43
39 -81 39 -85 0 -4 -16 9 -36 28 -58 56 -124 203 -124 279 0 20 2 22 10 10 9
-13 10 -13 10 0 0 13 1 13 10 0 7 -11 10 -7 10 18 0 17 4 32 10 32 5 0 9 -28
8 -63z m190 -23 l-4 -39 -13 30 c-7 17 -15 44 -18 60 l-5 30 21 -21 c17 -16
22 -30 19 -60z m-2117 -11 c13 -16 12 -17 -3 -4 -17 13 -22 21 -14 21 2 0 10
-8 17 -17z m2205 -136 c5 -54 3 -77 -4 -77 -17 0 -40 40 -48 85 -9 43 -8 54 8
94 l10 26 13 -26 c8 -14 17 -60 21 -102z m-2168 59 c13 -12 22 -31 22 -48 0
-37 -13 -29 -51 30 -45 71 -37 76 29 18z m161 -215 c1 -10 -4 -9 -14 5 -8 10
-14 33 -14 49 l1 30 13 -35 c7 -19 14 -41 14 -49z m2075 10 c3 -5 -1 -14 -10
-22 -13 -10 -19 -9 -37 9 l-21 22 31 0 c18 0 34 -4 37 -9z m-208 -122 c19 -22
19 -22 -3 -10 -24 12 -39 31 -25 31 5 0 17 -10 28 -21z m-1816 -101 c0 -35
-16 -56 -31 -41 -10 10 -10 18 1 38 17 31 30 32 30 3z m1565 -58 l30 -35 -28
25 c-16 14 -33 34 -39 45 -11 21 -10 20 37 -35z m768 -51 c4 -16 3 -18 -9 -8
-16 13 -19 29 -5 29 5 0 11 -9 14 -21z m-1983 -1445 c0 -14 -4 -23 -9 -20 -5
3 -7 15 -4 26 7 28 13 25 13 -6z m220 -46 c0 -11 -49 23 -50 35 0 4 11 0 25
-9 14 -9 25 -20 25 -26z m2035 -383 c-23 -8 -85 -10 -85 -3 0 4 21 8 48 7 26
0 43 -2 37 -4z m-697 -596 c6 -10 27 -20 45 -24 17 -4 42 -13 54 -21 21 -13
53 -66 53 -88 0 -7 18 -29 39 -49 22 -21 43 -46 46 -57 4 -11 12 -20 19 -20
12 0 46 -36 128 -134 58 -69 96 -106 110 -106 11 0 12 -43 10 -232 -3 -218 -4
-234 -22 -247 -11 -7 -20 -21 -20 -30 0 -9 -7 -27 -17 -40 -12 -18 -14 -28 -5
-41 6 -10 18 -35 26 -56 l16 -39 -25 30 c-13 16 -30 43 -36 60 -32 86 -48 111
-116 175 -72 69 -74 72 -132 218 -32 81 -90 239 -129 352 -39 113 -84 242
-101 288 -17 46 -31 87 -31 92 0 13 74 -13 88 -31z m1322 -2613 c15 -42 26
-86 23 -97 -4 -14 0 -25 10 -30 8 -5 18 -24 22 -42 4 -17 15 -46 24 -62 23
-39 33 -103 21 -126 -8 -14 -5 -23 9 -36 11 -10 24 -31 30 -46 14 -36 14 -127
1 -127 -16 0 -11 -38 6 -48 12 -7 18 -29 22 -81 4 -61 2 -74 -13 -85 -18 -13
-18 -18 10 -66 22 -38 19 -112 -6 -144 -21 -26 -21 -28 -4 -60 24 -45 18 -182
-9 -202 -18 -13 -18 -15 -1 -50 21 -45 17 -121 -9 -177 -13 -26 -15 -41 -8
-50 11 -12 17 -84 14 -149 -1 -24 -10 -45 -24 -58 -19 -17 -21 -24 -10 -40 24
-40 9 -170 -24 -203 -5 -5 -10 -36 -11 -70 -2 -33 -7 -65 -13 -71 -5 -5 -10
-20 -10 -33 0 -12 -8 -26 -17 -32 -15 -8 -16 -13 -5 -31 8 -13 10 -34 6 -56
-7 -39 -16 -36 -32 14 -6 18 -39 72 -72 121 -56 81 -63 99 -82 188 -26 126
-21 177 37 413 64 259 92 390 116 548 41 273 35 586 -17 905 -33 203 -32 210
16 83z m-289 -2708 c24 -29 23 -34 -2 -41 -11 -3 -19 -11 -18 -19 5 -36 -3
-50 -38 -65 -21 -9 -50 -15 -65 -14 -20 1 -27 -4 -30 -21 -2 -17 -14 -25 -47
-35 -25 -7 -47 -10 -50 -8 -5 5 216 225 226 225 3 0 13 -10 24 -22z"/>
</g>
</svg>
